<?xml version="1.0" encoding="UTF-8" standalone="no"?>
<!-- Created with Inkscape (http://www.inkscape.org/) -->

<svg
   width="210mm"
   height="297mm"
   viewBox="0 0 210 297"
   version="1.1"
   id="svg5"
   inkscape:version="1.1.2 (0a00cf5339, 2022-02-04)"
   sodipodi:docname="corne_logo.svg"
   xmlns:inkscape="http://www.inkscape.org/namespaces/inkscape"
   xmlns:sodipodi="http://sodipodi.sourceforge.net/DTD/sodipodi-0.dtd"
   xmlns="http://www.w3.org/2000/svg"
   xmlns:svg="http://www.w3.org/2000/svg">
  <sodipodi:namedview
     id="namedview7"
     pagecolor="#ffffff"
     bordercolor="#666666"
     borderopacity="1.0"
     inkscape:pageshadow="2"
     inkscape:pageopacity="0.0"
     inkscape:pagecheckerboard="0"
     inkscape:document-units="mm"
     showgrid="false"
     inkscape:snap-text-baseline="false"
     inkscape:zoom="2.1946698"
     inkscape:cx="562.95485"
     inkscape:cy="624.92317"
     inkscape:window-width="1553"
     inkscape:window-height="1081"
     inkscape:window-x="761"
     inkscape:window-y="337"
     inkscape:window-maximized="0"
     inkscape:current-layer="layer1" />
  <defs
     id="defs2">
    <rect
       x="386.77343"
       y="511.30246"
       width="947.48243"
       height="455.74183"
       id="rect3552" />
  </defs>
  <g
     inkscape:label="Layer 1"
     inkscape:groupmode="layer"
     id="layer1">
    <rect
       style="fill:#000000;fill-opacity:1;stroke:none;stroke-width:3.08693;stroke-linecap:square;stroke-linejoin:round;stroke-miterlimit:4;stroke-dasharray:none;stroke-opacity:1;paint-order:normal"
       id="rect608"
       width="190.82739"
       height="70.258675"
       x="96.923096"
       y="117.25237" />
    <text
       xml:space="preserve"
       transform="matrix(0.26458333,0,0,0.26458333,-4.4399855,-11.160618)"
       id="text3550"
       style="font-style:normal;font-variant:normal;font-weight:normal;font-stretch:normal;font-size:188.976px;line-height:1.25;font-family:Roboto;-inkscape-font-specification:Roboto;letter-spacing:0px;word-spacing:0px;white-space:pre;shape-inside:url(#rect3552);fill:#000000;fill-opacity:1;stroke:none"><tspan
         x="386.77344"
         y="685.07005"
         id="tspan27123"><tspan
           style="font-family:Poppins;-inkscape-font-specification:Poppins;fill:#ffffff"
           id="tspan27121">corne</tspan></tspan></text>
    <path
       style="fill:#000000;stroke-width:0.248446"
       d="m 34.744217,154.53392 v -31.65955 h 31.943075 31.943072 v 31.65955 31.65955 H 66.687292 34.744217 Z m 51.824916,22.9861 c 2.404239,-0.60158 3.658546,-1.27424 5.339821,-2.86368 2.506133,-2.36923 3.679315,-5.96169 3.19998,-9.79877 -0.114911,-0.91979 -0.367509,-1.97234 -0.561337,-2.33901 l -0.352427,-0.66664 -0.282998,1.34965 c -0.898965,4.28725 -4.094842,7.40771 -7.27641,7.10472 -4.484902,-0.42712 -5.523962,-5.6426 -2.624844,-13.1753 0.36649,-0.95226 1.641972,-3.51184 2.834404,-5.68796 2.294827,-4.18798 3.651632,-7.41625 4.08839,-9.72754 0.348966,-1.84674 0.116438,-4.45937 -0.504216,-5.66516 -1.562658,-3.03587 -6.640608,-5.23073 -10.540669,-4.55602 -7.131677,1.23377 -12.978119,9.35301 -14.960407,20.77629 -0.574683,3.31176 -0.635435,8.37703 -0.133935,11.16757 0.183368,1.02028 0.303268,1.88949 0.266445,1.93156 -0.119371,0.13642 -1.565176,-2.51433 -2.080476,-3.81435 -1.353078,-3.4136 -1.685358,-8.93361 -0.805521,-13.3817 0.42213,-2.13409 1.296949,-4.96179 2.295421,-7.41954 0.177502,-0.43693 0.234226,-0.88215 0.126041,-0.98936 -0.108177,-0.10723 -1.394561,-0.19494 -2.858617,-0.19494 -2.558103,0 -2.723428,0.0331 -4.239058,0.84752 -2.262476,1.2158 -4.541986,3.74386 -5.916626,6.56175 -1.654224,3.39102 -2.123372,5.34823 -2.290177,9.55422 -0.166418,4.19636 0.14065,6.78257 1.163523,9.79948 0.382686,1.12869 0.661081,2.05216 0.618675,2.05216 -0.04245,0 -0.694772,-0.92005 -1.449701,-2.04455 -2.97147,-4.42621 -4.167516,-9.59872 -3.416341,-14.77458 0.238451,-1.64302 0.08018,-1.8037 -1.580239,-1.60424 -4.740483,0.56948 -7.815403,6.52887 -6.909562,13.39115 0.518657,3.92909 1.85971,7.0022 4.104199,9.40501 1.955341,2.09325 3.245847,2.67769 5.898619,2.67133 1.900664,-0.005 2.289886,-0.09 3.743331,-0.82175 0.892164,-0.44918 1.815256,-0.98979 2.05133,-1.20139 0.394475,-0.35357 0.541502,-0.28302 1.815785,0.87126 0.762607,0.69078 2.139652,1.62326 3.060103,2.07217 1.51249,0.73764 1.878121,0.81434 3.799215,0.797 2.405049,-0.0217 4.430961,-0.66495 7.038234,-2.23473 l 1.483976,-0.89346 0.545057,0.50269 c 0.735989,0.67877 3.998466,2.38144 5.529394,2.88577 2.826151,0.931 6.350603,0.97184 9.781618,0.11337 z"
       id="path387" />
  </g>
</svg>
